G04 PROTEUS GERBER X2 FILE*
%TF.GenerationSoftware,Labcenter,Proteus,8.8-SP0-Build26547*%
%TF.CreationDate,2024-06-03T23:11:47+00:00*%
%TF.FileFunction,Plated,1,2,PTH*%
%TF.FilePolarity,Positive*%
%TF.Part,Single*%
%TF.SameCoordinates,{21ee4477-aff3-40fb-9ee6-804b83d108f7}*%
%FSLAX45Y45*%
%MOMM*%
G01*
%TA.AperFunction,ViaDrill*%
%ADD29C,1.016000*%
%TA.AperFunction,ComponentDrill*%
%ADD72C,0.762000*%
%TA.AperFunction,ComponentDrill*%
%ADD73C,1.016000*%
%ADD30C,1.524000*%
%TA.AperFunction,ComponentDrill*%
%ADD31C,1.143000*%
%TD.AperFunction*%
D29*
X+11457054Y-10372256D03*
X+5220603Y-10298924D03*
X+5123522Y-9534459D03*
X+11717725Y-10091365D03*
X+6087166Y-9936376D03*
X+13033449Y-11265790D03*
X+13000000Y-9200000D03*
X+13001587Y-9485154D03*
X+2963726Y-8320224D03*
X+12873802Y-5613072D03*
X+11574172Y-5367249D03*
X+5214438Y-5795155D03*
X+5208049Y-6060535D03*
X+3250000Y-8300000D03*
X+3900000Y-6300000D03*
X+7400000Y-10450000D03*
X+6400000Y-10450000D03*
X+5847834Y-7235918D03*
X+3969220Y-7242954D03*
X+9885495Y-5935514D03*
X+12600000Y-5050000D03*
X+3485524Y-9840077D03*
X+2490185Y-9312010D03*
X+5500000Y-8000000D03*
X+5250000Y-11350000D03*
X+1651536Y-7003115D03*
X+6060871Y-11650197D03*
X+11845892Y-7384841D03*
X+12756874Y-7378809D03*
X+13411529Y-7385087D03*
X+5200387Y-8796905D03*
D72*
X+9424000Y-6187956D03*
X+9424000Y-6441956D03*
X+7900000Y-6187956D03*
X+9424000Y-5933956D03*
X+7900000Y-5933956D03*
X+7900000Y-5679956D03*
X+7900000Y-6441956D03*
X+7900000Y-5425956D03*
X+9424000Y-5425956D03*
X+9424000Y-5679956D03*
X+9424000Y-8387956D03*
X+9424000Y-8641956D03*
X+7900000Y-8387956D03*
X+9424000Y-8133956D03*
X+7900000Y-8133956D03*
X+7900000Y-7879956D03*
X+7900000Y-8641956D03*
X+7900000Y-7625956D03*
X+9424000Y-7625956D03*
X+9424000Y-7879956D03*
X+9424000Y-10699956D03*
X+9424000Y-10953956D03*
X+7900000Y-10699956D03*
X+9424000Y-10445956D03*
X+7900000Y-10445956D03*
X+7900000Y-10191956D03*
X+7900000Y-10953956D03*
X+7900000Y-9937956D03*
X+9424000Y-9937956D03*
X+9424000Y-10191956D03*
D73*
X+10900000Y-10687956D03*
X+9884000Y-10687956D03*
X+10900000Y-10937956D03*
X+9884000Y-10937956D03*
X+6384000Y-10687956D03*
X+7400000Y-10687956D03*
X+6400000Y-10187956D03*
X+7416000Y-10187956D03*
X+6400000Y-9937956D03*
X+7416000Y-9937956D03*
X+10916000Y-10187956D03*
X+9900000Y-10187956D03*
X+10900000Y-9937956D03*
X+9884000Y-9937956D03*
X+10900000Y-8375956D03*
X+9884000Y-8375956D03*
X+10900000Y-8625956D03*
X+9884000Y-8625956D03*
X+6334000Y-8325956D03*
X+7350000Y-8325956D03*
X+6400000Y-7875956D03*
X+7416000Y-7875956D03*
X+6400000Y-7625956D03*
X+7416000Y-7625956D03*
X+10916000Y-7875956D03*
X+9900000Y-7875956D03*
X+10900000Y-7625956D03*
X+9884000Y-7625956D03*
X+10900000Y-6175956D03*
X+9884000Y-6175956D03*
X+10900000Y-6425956D03*
X+9884000Y-6425956D03*
X+6384000Y-6275956D03*
X+7400000Y-6275956D03*
X+6400000Y-5675956D03*
X+7416000Y-5675956D03*
X+6400000Y-5425956D03*
X+7416000Y-5425956D03*
X+10916000Y-5675956D03*
X+9900000Y-5675956D03*
X+10900000Y-5425956D03*
X+9884000Y-5425956D03*
X+11938000Y-8821956D03*
X+11938000Y-9075956D03*
X+11938000Y-9329956D03*
X+11938000Y-9583956D03*
X+11938000Y-9837956D03*
X+11938000Y-10091956D03*
X+11938000Y-10345956D03*
X+11938000Y-10599956D03*
X+12700000Y-10599956D03*
X+12700000Y-10345956D03*
X+12700000Y-10091956D03*
X+12700000Y-9837956D03*
X+12700000Y-9583956D03*
X+12700000Y-9329956D03*
X+12700000Y-9075956D03*
X+12700000Y-8821956D03*
X+12600000Y-7145956D03*
X+12600000Y-6891956D03*
X+12600000Y-6637956D03*
X+12600000Y-6383956D03*
X+12600000Y-6129956D03*
X+12600000Y-5875956D03*
X+12600000Y-5621956D03*
X+12600000Y-5367956D03*
X+11838000Y-5367956D03*
X+11838000Y-5621956D03*
X+11838000Y-5875956D03*
X+11838000Y-6129956D03*
X+11838000Y-6383956D03*
X+11838000Y-6637956D03*
X+11838000Y-6891956D03*
X+11838000Y-7145956D03*
X+4134000Y-5031956D03*
X+4134000Y-5285956D03*
X+4134000Y-5539956D03*
X+4134000Y-5793956D03*
X+4134000Y-6047956D03*
X+4134000Y-6301956D03*
X+4134000Y-6555956D03*
X+4134000Y-6809956D03*
X+4896000Y-6809956D03*
X+4896000Y-6555956D03*
X+4896000Y-6301956D03*
X+4896000Y-6047956D03*
X+4896000Y-5793956D03*
X+4896000Y-5539956D03*
X+4896000Y-5285956D03*
X+4896000Y-5031956D03*
D30*
X+1936000Y-5079956D03*
X+1936000Y-5587956D03*
X+2036000Y-10179956D03*
X+2036000Y-10687956D03*
D73*
X+3186000Y-10333956D03*
X+3186000Y-10079956D03*
X+3186000Y-9825956D03*
X+13162000Y-8727956D03*
X+13162000Y-7711956D03*
X+2536000Y-11229956D03*
X+1520000Y-11229956D03*
X+2786000Y-5629956D03*
X+2786000Y-6645956D03*
X+1638000Y-7279956D03*
X+1638000Y-7533956D03*
X+1638000Y-7787956D03*
X+1638000Y-8041956D03*
X+1638000Y-8295956D03*
X+1638000Y-8549956D03*
X+1638000Y-8803956D03*
X+2400000Y-8803956D03*
X+2400000Y-8549956D03*
X+2400000Y-8295956D03*
X+2400000Y-8041956D03*
X+2400000Y-7787956D03*
X+2400000Y-7533956D03*
X+2400000Y-7279956D03*
X+4138000Y-8263956D03*
X+4138000Y-8517956D03*
X+4138000Y-8771956D03*
X+4138000Y-9025956D03*
X+4138000Y-9279956D03*
X+4138000Y-9533956D03*
X+4138000Y-9787956D03*
X+4138000Y-10041956D03*
X+4138000Y-10295956D03*
X+4900000Y-10295956D03*
X+4900000Y-10041956D03*
X+4900000Y-9787956D03*
X+4900000Y-9533956D03*
X+4900000Y-9279956D03*
X+4900000Y-9025956D03*
X+4900000Y-8771956D03*
X+4900000Y-8517956D03*
X+4900000Y-8263956D03*
X+12150000Y-7941956D03*
X+12150000Y-8195956D03*
D31*
X+2300000Y-6650000D03*
X+1650000Y-6650000D03*
X+2300000Y-6200000D03*
X+1650000Y-6200000D03*
X+4850000Y-11350000D03*
X+4200000Y-11350000D03*
X+4850000Y-10900000D03*
X+4200000Y-10900000D03*
D73*
X+2521627Y-11525166D03*
X+3537627Y-11525166D03*
M02*
