G04 PROTEUS GERBER X2 FILE*
%TF.GenerationSoftware,Labcenter,Proteus,8.8-SP0-Build26547*%
%TF.CreationDate,2024-06-03T23:11:47+00:00*%
%TF.FileFunction,AssemblyDrawing,Top*%
%TF.FilePolarity,Positive*%
%TF.Part,Single*%
%TF.SameCoordinates,{21ee4477-aff3-40fb-9ee6-804b83d108f7}*%
%FSLAX45Y45*%
%MOMM*%
G01*
%TA.AperFunction,Material*%
%ADD17C,0.203200*%
%ADD22C,0.228030*%
%TA.AperFunction,Profile*%
%ADD16C,0.203200*%
%TA.AperFunction,Material*%
%ADD23C,0.106680*%
%ADD24C,0.577200*%
%ADD25C,0.345440*%
%ADD26C,0.164590*%
%ADD27C,0.197270*%
%ADD28C,0.214060*%
%TD.AperFunction*%
D17*
X+7635840Y-6706116D02*
X+9688160Y-6706116D01*
X+9688160Y-5161796D01*
X+7635840Y-5161796D01*
X+7635840Y-6706116D01*
D22*
X+7932288Y-6002366D02*
X+7932288Y-5865545D01*
X+8023502Y-5865545D01*
X+8069109Y-5911152D01*
X+8069109Y-5956759D01*
X+8023502Y-6002366D01*
X+7932288Y-6002366D01*
X+8137519Y-5865545D02*
X+8228733Y-5865545D01*
X+8183126Y-5865545D02*
X+8183126Y-6002366D01*
X+8137519Y-6002366D02*
X+8228733Y-6002366D01*
X+8297144Y-5979563D02*
X+8319947Y-6002366D01*
X+8411161Y-6002366D01*
X+8433965Y-5979563D01*
X+8433965Y-5956759D01*
X+8411161Y-5933956D01*
X+8319947Y-5933956D01*
X+8297144Y-5911152D01*
X+8297144Y-5888349D01*
X+8319947Y-5865545D01*
X+8411161Y-5865545D01*
X+8433965Y-5888349D01*
X+8479572Y-6002366D02*
X+8479572Y-5865545D01*
X+8593589Y-5865545D01*
X+8616393Y-5888349D01*
X+8616393Y-5911152D01*
X+8593589Y-5933956D01*
X+8479572Y-5933956D01*
X+8662000Y-5865545D02*
X+8662000Y-6002366D01*
X+8798821Y-6002366D01*
X+8844428Y-6002366D02*
X+8844428Y-5911152D01*
X+8890035Y-5865545D01*
X+8935642Y-5865545D01*
X+8981249Y-5911152D01*
X+8981249Y-6002366D01*
X+8844428Y-5956759D02*
X+8981249Y-5956759D01*
X+9163677Y-5865545D02*
X+9026856Y-6002366D01*
X+9026856Y-5865545D02*
X+9095266Y-5933956D01*
X+9254891Y-5911152D02*
X+9300498Y-5865545D01*
X+9300498Y-6002366D01*
D17*
X+7635840Y-8906116D02*
X+9688160Y-8906116D01*
X+9688160Y-7361796D01*
X+7635840Y-7361796D01*
X+7635840Y-8906116D01*
D22*
X+7932288Y-8202366D02*
X+7932288Y-8065545D01*
X+8023502Y-8065545D01*
X+8069109Y-8111152D01*
X+8069109Y-8156759D01*
X+8023502Y-8202366D01*
X+7932288Y-8202366D01*
X+8137519Y-8065545D02*
X+8228733Y-8065545D01*
X+8183126Y-8065545D02*
X+8183126Y-8202366D01*
X+8137519Y-8202366D02*
X+8228733Y-8202366D01*
X+8297144Y-8179563D02*
X+8319947Y-8202366D01*
X+8411161Y-8202366D01*
X+8433965Y-8179563D01*
X+8433965Y-8156759D01*
X+8411161Y-8133956D01*
X+8319947Y-8133956D01*
X+8297144Y-8111152D01*
X+8297144Y-8088349D01*
X+8319947Y-8065545D01*
X+8411161Y-8065545D01*
X+8433965Y-8088349D01*
X+8479572Y-8202366D02*
X+8479572Y-8065545D01*
X+8593589Y-8065545D01*
X+8616393Y-8088349D01*
X+8616393Y-8111152D01*
X+8593589Y-8133956D01*
X+8479572Y-8133956D01*
X+8662000Y-8065545D02*
X+8662000Y-8202366D01*
X+8798821Y-8202366D01*
X+8844428Y-8202366D02*
X+8844428Y-8111152D01*
X+8890035Y-8065545D01*
X+8935642Y-8065545D01*
X+8981249Y-8111152D01*
X+8981249Y-8202366D01*
X+8844428Y-8156759D02*
X+8981249Y-8156759D01*
X+9163677Y-8065545D02*
X+9026856Y-8202366D01*
X+9026856Y-8065545D02*
X+9095266Y-8133956D01*
X+9232087Y-8088349D02*
X+9254891Y-8065545D01*
X+9323301Y-8065545D01*
X+9346105Y-8088349D01*
X+9346105Y-8111152D01*
X+9323301Y-8133956D01*
X+9254891Y-8133956D01*
X+9232087Y-8156759D01*
X+9232087Y-8202366D01*
X+9346105Y-8202366D01*
D17*
X+7635840Y-11218116D02*
X+9688160Y-11218116D01*
X+9688160Y-9673796D01*
X+7635840Y-9673796D01*
X+7635840Y-11218116D01*
D22*
X+7932288Y-10514366D02*
X+7932288Y-10377545D01*
X+8023502Y-10377545D01*
X+8069109Y-10423152D01*
X+8069109Y-10468759D01*
X+8023502Y-10514366D01*
X+7932288Y-10514366D01*
X+8137519Y-10377545D02*
X+8228733Y-10377545D01*
X+8183126Y-10377545D02*
X+8183126Y-10514366D01*
X+8137519Y-10514366D02*
X+8228733Y-10514366D01*
X+8297144Y-10491563D02*
X+8319947Y-10514366D01*
X+8411161Y-10514366D01*
X+8433965Y-10491563D01*
X+8433965Y-10468759D01*
X+8411161Y-10445956D01*
X+8319947Y-10445956D01*
X+8297144Y-10423152D01*
X+8297144Y-10400349D01*
X+8319947Y-10377545D01*
X+8411161Y-10377545D01*
X+8433965Y-10400349D01*
X+8479572Y-10514366D02*
X+8479572Y-10377545D01*
X+8593589Y-10377545D01*
X+8616393Y-10400349D01*
X+8616393Y-10423152D01*
X+8593589Y-10445956D01*
X+8479572Y-10445956D01*
X+8662000Y-10377545D02*
X+8662000Y-10514366D01*
X+8798821Y-10514366D01*
X+8844428Y-10514366D02*
X+8844428Y-10423152D01*
X+8890035Y-10377545D01*
X+8935642Y-10377545D01*
X+8981249Y-10423152D01*
X+8981249Y-10514366D01*
X+8844428Y-10468759D02*
X+8981249Y-10468759D01*
X+9163677Y-10377545D02*
X+9026856Y-10514366D01*
X+9026856Y-10377545D02*
X+9095266Y-10445956D01*
X+9232087Y-10400349D02*
X+9254891Y-10377545D01*
X+9323301Y-10377545D01*
X+9346105Y-10400349D01*
X+9346105Y-10423152D01*
X+9323301Y-10445956D01*
X+9346105Y-10468759D01*
X+9346105Y-10491563D01*
X+9323301Y-10514366D01*
X+9254891Y-10514366D01*
X+9232087Y-10491563D01*
X+9277694Y-10445956D02*
X+9323301Y-10445956D01*
D16*
X+950000Y-11941956D02*
X+14050000Y-11941956D01*
X+14050000Y-4541956D01*
X+950000Y-4541956D01*
X+950000Y-11941956D01*
D17*
X+9795100Y-10776856D02*
X+10988900Y-10776856D01*
X+10988900Y-10599056D01*
X+9795100Y-10599056D01*
X+9795100Y-10776856D01*
D23*
X+10306656Y-10719960D02*
X+10306656Y-10655952D01*
X+10359996Y-10655952D01*
X+10370664Y-10666620D01*
X+10370664Y-10677288D01*
X+10359996Y-10687956D01*
X+10306656Y-10687956D01*
X+10359996Y-10687956D02*
X+10370664Y-10698624D01*
X+10370664Y-10719960D01*
X+10402668Y-10666620D02*
X+10413336Y-10655952D01*
X+10445340Y-10655952D01*
X+10456008Y-10666620D01*
X+10456008Y-10677288D01*
X+10445340Y-10687956D01*
X+10456008Y-10698624D01*
X+10456008Y-10709292D01*
X+10445340Y-10719960D01*
X+10413336Y-10719960D01*
X+10402668Y-10709292D01*
X+10424004Y-10687956D02*
X+10445340Y-10687956D01*
D17*
X+9795100Y-11026856D02*
X+10988900Y-11026856D01*
X+10988900Y-10849056D01*
X+9795100Y-10849056D01*
X+9795100Y-11026856D01*
D23*
X+10306656Y-10969960D02*
X+10306656Y-10905952D01*
X+10359996Y-10905952D01*
X+10370664Y-10916620D01*
X+10370664Y-10927288D01*
X+10359996Y-10937956D01*
X+10306656Y-10937956D01*
X+10359996Y-10937956D02*
X+10370664Y-10948624D01*
X+10370664Y-10969960D01*
X+10456008Y-10948624D02*
X+10392000Y-10948624D01*
X+10434672Y-10905952D01*
X+10434672Y-10969960D01*
D17*
X+6295100Y-10776856D02*
X+7488900Y-10776856D01*
X+7488900Y-10599056D01*
X+6295100Y-10599056D01*
X+6295100Y-10776856D01*
D23*
X+6806656Y-10719960D02*
X+6806656Y-10655952D01*
X+6859996Y-10655952D01*
X+6870664Y-10666620D01*
X+6870664Y-10677288D01*
X+6859996Y-10687956D01*
X+6806656Y-10687956D01*
X+6859996Y-10687956D02*
X+6870664Y-10698624D01*
X+6870664Y-10719960D01*
X+6956008Y-10655952D02*
X+6902668Y-10655952D01*
X+6902668Y-10677288D01*
X+6945340Y-10677288D01*
X+6956008Y-10687956D01*
X+6956008Y-10709292D01*
X+6945340Y-10719960D01*
X+6913336Y-10719960D01*
X+6902668Y-10709292D01*
D17*
X+6311100Y-10276856D02*
X+7504900Y-10276856D01*
X+7504900Y-10099056D01*
X+6311100Y-10099056D01*
X+6311100Y-10276856D01*
D23*
X+6822656Y-10219960D02*
X+6822656Y-10155952D01*
X+6875996Y-10155952D01*
X+6886664Y-10166620D01*
X+6886664Y-10177288D01*
X+6875996Y-10187956D01*
X+6822656Y-10187956D01*
X+6875996Y-10187956D02*
X+6886664Y-10198624D01*
X+6886664Y-10219960D01*
X+6972008Y-10166620D02*
X+6961340Y-10155952D01*
X+6929336Y-10155952D01*
X+6918668Y-10166620D01*
X+6918668Y-10209292D01*
X+6929336Y-10219960D01*
X+6961340Y-10219960D01*
X+6972008Y-10209292D01*
X+6972008Y-10198624D01*
X+6961340Y-10187956D01*
X+6918668Y-10187956D01*
D17*
X+6311100Y-10026856D02*
X+7504900Y-10026856D01*
X+7504900Y-9849056D01*
X+6311100Y-9849056D01*
X+6311100Y-10026856D01*
D23*
X+6822656Y-9969960D02*
X+6822656Y-9905952D01*
X+6875996Y-9905952D01*
X+6886664Y-9916620D01*
X+6886664Y-9927288D01*
X+6875996Y-9937956D01*
X+6822656Y-9937956D01*
X+6875996Y-9937956D02*
X+6886664Y-9948624D01*
X+6886664Y-9969960D01*
X+6918668Y-9905952D02*
X+6972008Y-9905952D01*
X+6972008Y-9916620D01*
X+6918668Y-9969960D01*
D17*
X+9811100Y-10276856D02*
X+11004900Y-10276856D01*
X+11004900Y-10099056D01*
X+9811100Y-10099056D01*
X+9811100Y-10276856D01*
D23*
X+10322656Y-10219960D02*
X+10322656Y-10155952D01*
X+10375996Y-10155952D01*
X+10386664Y-10166620D01*
X+10386664Y-10177288D01*
X+10375996Y-10187956D01*
X+10322656Y-10187956D01*
X+10375996Y-10187956D02*
X+10386664Y-10198624D01*
X+10386664Y-10219960D01*
X+10429336Y-10187956D02*
X+10418668Y-10177288D01*
X+10418668Y-10166620D01*
X+10429336Y-10155952D01*
X+10461340Y-10155952D01*
X+10472008Y-10166620D01*
X+10472008Y-10177288D01*
X+10461340Y-10187956D01*
X+10429336Y-10187956D01*
X+10418668Y-10198624D01*
X+10418668Y-10209292D01*
X+10429336Y-10219960D01*
X+10461340Y-10219960D01*
X+10472008Y-10209292D01*
X+10472008Y-10198624D01*
X+10461340Y-10187956D01*
D17*
X+9795100Y-10026856D02*
X+10988900Y-10026856D01*
X+10988900Y-9849056D01*
X+9795100Y-9849056D01*
X+9795100Y-10026856D01*
D23*
X+10306656Y-9969960D02*
X+10306656Y-9905952D01*
X+10359996Y-9905952D01*
X+10370664Y-9916620D01*
X+10370664Y-9927288D01*
X+10359996Y-9937956D01*
X+10306656Y-9937956D01*
X+10359996Y-9937956D02*
X+10370664Y-9948624D01*
X+10370664Y-9969960D01*
X+10456008Y-9927288D02*
X+10445340Y-9937956D01*
X+10413336Y-9937956D01*
X+10402668Y-9927288D01*
X+10402668Y-9916620D01*
X+10413336Y-9905952D01*
X+10445340Y-9905952D01*
X+10456008Y-9916620D01*
X+10456008Y-9959292D01*
X+10445340Y-9969960D01*
X+10413336Y-9969960D01*
D17*
X+9795100Y-8464856D02*
X+10988900Y-8464856D01*
X+10988900Y-8287056D01*
X+9795100Y-8287056D01*
X+9795100Y-8464856D01*
D23*
X+10263984Y-8407960D02*
X+10263984Y-8343952D01*
X+10317324Y-8343952D01*
X+10327992Y-8354620D01*
X+10327992Y-8365288D01*
X+10317324Y-8375956D01*
X+10263984Y-8375956D01*
X+10317324Y-8375956D02*
X+10327992Y-8386624D01*
X+10327992Y-8407960D01*
X+10370664Y-8365288D02*
X+10392000Y-8343952D01*
X+10392000Y-8407960D01*
X+10434672Y-8397292D02*
X+10434672Y-8354620D01*
X+10445340Y-8343952D01*
X+10488012Y-8343952D01*
X+10498680Y-8354620D01*
X+10498680Y-8397292D01*
X+10488012Y-8407960D01*
X+10445340Y-8407960D01*
X+10434672Y-8397292D01*
X+10434672Y-8407960D02*
X+10498680Y-8343952D01*
D17*
X+9795100Y-8714856D02*
X+10988900Y-8714856D01*
X+10988900Y-8537056D01*
X+9795100Y-8537056D01*
X+9795100Y-8714856D01*
D23*
X+10263984Y-8657960D02*
X+10263984Y-8593952D01*
X+10317324Y-8593952D01*
X+10327992Y-8604620D01*
X+10327992Y-8615288D01*
X+10317324Y-8625956D01*
X+10263984Y-8625956D01*
X+10317324Y-8625956D02*
X+10327992Y-8636624D01*
X+10327992Y-8657960D01*
X+10370664Y-8615288D02*
X+10392000Y-8593952D01*
X+10392000Y-8657960D01*
X+10456008Y-8615288D02*
X+10477344Y-8593952D01*
X+10477344Y-8657960D01*
D17*
X+6245100Y-8414856D02*
X+7438900Y-8414856D01*
X+7438900Y-8237056D01*
X+6245100Y-8237056D01*
X+6245100Y-8414856D01*
D23*
X+6713984Y-8357960D02*
X+6713984Y-8293952D01*
X+6767324Y-8293952D01*
X+6777992Y-8304620D01*
X+6777992Y-8315288D01*
X+6767324Y-8325956D01*
X+6713984Y-8325956D01*
X+6767324Y-8325956D02*
X+6777992Y-8336624D01*
X+6777992Y-8357960D01*
X+6820664Y-8315288D02*
X+6842000Y-8293952D01*
X+6842000Y-8357960D01*
X+6895340Y-8304620D02*
X+6906008Y-8293952D01*
X+6938012Y-8293952D01*
X+6948680Y-8304620D01*
X+6948680Y-8315288D01*
X+6938012Y-8325956D01*
X+6906008Y-8325956D01*
X+6895340Y-8336624D01*
X+6895340Y-8357960D01*
X+6948680Y-8357960D01*
D17*
X+6311100Y-7964856D02*
X+7504900Y-7964856D01*
X+7504900Y-7787056D01*
X+6311100Y-7787056D01*
X+6311100Y-7964856D01*
D23*
X+6779984Y-7907960D02*
X+6779984Y-7843952D01*
X+6833324Y-7843952D01*
X+6843992Y-7854620D01*
X+6843992Y-7865288D01*
X+6833324Y-7875956D01*
X+6779984Y-7875956D01*
X+6833324Y-7875956D02*
X+6843992Y-7886624D01*
X+6843992Y-7907960D01*
X+6886664Y-7865288D02*
X+6908000Y-7843952D01*
X+6908000Y-7907960D01*
X+6961340Y-7854620D02*
X+6972008Y-7843952D01*
X+7004012Y-7843952D01*
X+7014680Y-7854620D01*
X+7014680Y-7865288D01*
X+7004012Y-7875956D01*
X+7014680Y-7886624D01*
X+7014680Y-7897292D01*
X+7004012Y-7907960D01*
X+6972008Y-7907960D01*
X+6961340Y-7897292D01*
X+6982676Y-7875956D02*
X+7004012Y-7875956D01*
D17*
X+6311100Y-7714856D02*
X+7504900Y-7714856D01*
X+7504900Y-7537056D01*
X+6311100Y-7537056D01*
X+6311100Y-7714856D01*
D23*
X+6779984Y-7657960D02*
X+6779984Y-7593952D01*
X+6833324Y-7593952D01*
X+6843992Y-7604620D01*
X+6843992Y-7615288D01*
X+6833324Y-7625956D01*
X+6779984Y-7625956D01*
X+6833324Y-7625956D02*
X+6843992Y-7636624D01*
X+6843992Y-7657960D01*
X+6886664Y-7615288D02*
X+6908000Y-7593952D01*
X+6908000Y-7657960D01*
X+7014680Y-7636624D02*
X+6950672Y-7636624D01*
X+6993344Y-7593952D01*
X+6993344Y-7657960D01*
D17*
X+9811100Y-7964856D02*
X+11004900Y-7964856D01*
X+11004900Y-7787056D01*
X+9811100Y-7787056D01*
X+9811100Y-7964856D01*
D23*
X+10279984Y-7907960D02*
X+10279984Y-7843952D01*
X+10333324Y-7843952D01*
X+10343992Y-7854620D01*
X+10343992Y-7865288D01*
X+10333324Y-7875956D01*
X+10279984Y-7875956D01*
X+10333324Y-7875956D02*
X+10343992Y-7886624D01*
X+10343992Y-7907960D01*
X+10386664Y-7865288D02*
X+10408000Y-7843952D01*
X+10408000Y-7907960D01*
X+10514680Y-7843952D02*
X+10461340Y-7843952D01*
X+10461340Y-7865288D01*
X+10504012Y-7865288D01*
X+10514680Y-7875956D01*
X+10514680Y-7897292D01*
X+10504012Y-7907960D01*
X+10472008Y-7907960D01*
X+10461340Y-7897292D01*
D17*
X+9795100Y-7714856D02*
X+10988900Y-7714856D01*
X+10988900Y-7537056D01*
X+9795100Y-7537056D01*
X+9795100Y-7714856D01*
D23*
X+10263984Y-7657960D02*
X+10263984Y-7593952D01*
X+10317324Y-7593952D01*
X+10327992Y-7604620D01*
X+10327992Y-7615288D01*
X+10317324Y-7625956D01*
X+10263984Y-7625956D01*
X+10317324Y-7625956D02*
X+10327992Y-7636624D01*
X+10327992Y-7657960D01*
X+10370664Y-7615288D02*
X+10392000Y-7593952D01*
X+10392000Y-7657960D01*
X+10498680Y-7604620D02*
X+10488012Y-7593952D01*
X+10456008Y-7593952D01*
X+10445340Y-7604620D01*
X+10445340Y-7647292D01*
X+10456008Y-7657960D01*
X+10488012Y-7657960D01*
X+10498680Y-7647292D01*
X+10498680Y-7636624D01*
X+10488012Y-7625956D01*
X+10445340Y-7625956D01*
D17*
X+9795100Y-6264856D02*
X+10988900Y-6264856D01*
X+10988900Y-6087056D01*
X+9795100Y-6087056D01*
X+9795100Y-6264856D01*
D23*
X+10263984Y-6207960D02*
X+10263984Y-6143952D01*
X+10317324Y-6143952D01*
X+10327992Y-6154620D01*
X+10327992Y-6165288D01*
X+10317324Y-6175956D01*
X+10263984Y-6175956D01*
X+10317324Y-6175956D02*
X+10327992Y-6186624D01*
X+10327992Y-6207960D01*
X+10370664Y-6165288D02*
X+10392000Y-6143952D01*
X+10392000Y-6207960D01*
X+10445340Y-6143952D02*
X+10498680Y-6143952D01*
X+10498680Y-6154620D01*
X+10445340Y-6207960D01*
D17*
X+9795100Y-6514856D02*
X+10988900Y-6514856D01*
X+10988900Y-6337056D01*
X+9795100Y-6337056D01*
X+9795100Y-6514856D01*
D23*
X+10263984Y-6457960D02*
X+10263984Y-6393952D01*
X+10317324Y-6393952D01*
X+10327992Y-6404620D01*
X+10327992Y-6415288D01*
X+10317324Y-6425956D01*
X+10263984Y-6425956D01*
X+10317324Y-6425956D02*
X+10327992Y-6436624D01*
X+10327992Y-6457960D01*
X+10370664Y-6415288D02*
X+10392000Y-6393952D01*
X+10392000Y-6457960D01*
X+10456008Y-6425956D02*
X+10445340Y-6415288D01*
X+10445340Y-6404620D01*
X+10456008Y-6393952D01*
X+10488012Y-6393952D01*
X+10498680Y-6404620D01*
X+10498680Y-6415288D01*
X+10488012Y-6425956D01*
X+10456008Y-6425956D01*
X+10445340Y-6436624D01*
X+10445340Y-6447292D01*
X+10456008Y-6457960D01*
X+10488012Y-6457960D01*
X+10498680Y-6447292D01*
X+10498680Y-6436624D01*
X+10488012Y-6425956D01*
D17*
X+6295100Y-6364856D02*
X+7488900Y-6364856D01*
X+7488900Y-6187056D01*
X+6295100Y-6187056D01*
X+6295100Y-6364856D01*
D23*
X+6763984Y-6307960D02*
X+6763984Y-6243952D01*
X+6817324Y-6243952D01*
X+6827992Y-6254620D01*
X+6827992Y-6265288D01*
X+6817324Y-6275956D01*
X+6763984Y-6275956D01*
X+6817324Y-6275956D02*
X+6827992Y-6286624D01*
X+6827992Y-6307960D01*
X+6870664Y-6265288D02*
X+6892000Y-6243952D01*
X+6892000Y-6307960D01*
X+6998680Y-6265288D02*
X+6988012Y-6275956D01*
X+6956008Y-6275956D01*
X+6945340Y-6265288D01*
X+6945340Y-6254620D01*
X+6956008Y-6243952D01*
X+6988012Y-6243952D01*
X+6998680Y-6254620D01*
X+6998680Y-6297292D01*
X+6988012Y-6307960D01*
X+6956008Y-6307960D01*
D17*
X+6311100Y-5764856D02*
X+7504900Y-5764856D01*
X+7504900Y-5587056D01*
X+6311100Y-5587056D01*
X+6311100Y-5764856D01*
D23*
X+6779984Y-5707960D02*
X+6779984Y-5643952D01*
X+6833324Y-5643952D01*
X+6843992Y-5654620D01*
X+6843992Y-5665288D01*
X+6833324Y-5675956D01*
X+6779984Y-5675956D01*
X+6833324Y-5675956D02*
X+6843992Y-5686624D01*
X+6843992Y-5707960D01*
X+6875996Y-5654620D02*
X+6886664Y-5643952D01*
X+6918668Y-5643952D01*
X+6929336Y-5654620D01*
X+6929336Y-5665288D01*
X+6918668Y-5675956D01*
X+6886664Y-5675956D01*
X+6875996Y-5686624D01*
X+6875996Y-5707960D01*
X+6929336Y-5707960D01*
X+6950672Y-5697292D02*
X+6950672Y-5654620D01*
X+6961340Y-5643952D01*
X+7004012Y-5643952D01*
X+7014680Y-5654620D01*
X+7014680Y-5697292D01*
X+7004012Y-5707960D01*
X+6961340Y-5707960D01*
X+6950672Y-5697292D01*
X+6950672Y-5707960D02*
X+7014680Y-5643952D01*
D17*
X+6311100Y-5514856D02*
X+7504900Y-5514856D01*
X+7504900Y-5337056D01*
X+6311100Y-5337056D01*
X+6311100Y-5514856D01*
D23*
X+6779984Y-5457960D02*
X+6779984Y-5393952D01*
X+6833324Y-5393952D01*
X+6843992Y-5404620D01*
X+6843992Y-5415288D01*
X+6833324Y-5425956D01*
X+6779984Y-5425956D01*
X+6833324Y-5425956D02*
X+6843992Y-5436624D01*
X+6843992Y-5457960D01*
X+6875996Y-5404620D02*
X+6886664Y-5393952D01*
X+6918668Y-5393952D01*
X+6929336Y-5404620D01*
X+6929336Y-5415288D01*
X+6918668Y-5425956D01*
X+6886664Y-5425956D01*
X+6875996Y-5436624D01*
X+6875996Y-5457960D01*
X+6929336Y-5457960D01*
X+6972008Y-5415288D02*
X+6993344Y-5393952D01*
X+6993344Y-5457960D01*
D17*
X+9811100Y-5764856D02*
X+11004900Y-5764856D01*
X+11004900Y-5587056D01*
X+9811100Y-5587056D01*
X+9811100Y-5764856D01*
D23*
X+10279984Y-5707960D02*
X+10279984Y-5643952D01*
X+10333324Y-5643952D01*
X+10343992Y-5654620D01*
X+10343992Y-5665288D01*
X+10333324Y-5675956D01*
X+10279984Y-5675956D01*
X+10333324Y-5675956D02*
X+10343992Y-5686624D01*
X+10343992Y-5707960D01*
X+10375996Y-5654620D02*
X+10386664Y-5643952D01*
X+10418668Y-5643952D01*
X+10429336Y-5654620D01*
X+10429336Y-5665288D01*
X+10418668Y-5675956D01*
X+10386664Y-5675956D01*
X+10375996Y-5686624D01*
X+10375996Y-5707960D01*
X+10429336Y-5707960D01*
X+10461340Y-5654620D02*
X+10472008Y-5643952D01*
X+10504012Y-5643952D01*
X+10514680Y-5654620D01*
X+10514680Y-5665288D01*
X+10504012Y-5675956D01*
X+10472008Y-5675956D01*
X+10461340Y-5686624D01*
X+10461340Y-5707960D01*
X+10514680Y-5707960D01*
D17*
X+9795100Y-5514856D02*
X+10988900Y-5514856D01*
X+10988900Y-5337056D01*
X+9795100Y-5337056D01*
X+9795100Y-5514856D01*
D23*
X+10263984Y-5457960D02*
X+10263984Y-5393952D01*
X+10317324Y-5393952D01*
X+10327992Y-5404620D01*
X+10327992Y-5415288D01*
X+10317324Y-5425956D01*
X+10263984Y-5425956D01*
X+10317324Y-5425956D02*
X+10327992Y-5436624D01*
X+10327992Y-5457960D01*
X+10359996Y-5404620D02*
X+10370664Y-5393952D01*
X+10402668Y-5393952D01*
X+10413336Y-5404620D01*
X+10413336Y-5415288D01*
X+10402668Y-5425956D01*
X+10370664Y-5425956D01*
X+10359996Y-5436624D01*
X+10359996Y-5457960D01*
X+10413336Y-5457960D01*
X+10445340Y-5404620D02*
X+10456008Y-5393952D01*
X+10488012Y-5393952D01*
X+10498680Y-5404620D01*
X+10498680Y-5415288D01*
X+10488012Y-5425956D01*
X+10498680Y-5436624D01*
X+10498680Y-5447292D01*
X+10488012Y-5457960D01*
X+10456008Y-5457960D01*
X+10445340Y-5447292D01*
X+10466676Y-5425956D02*
X+10488012Y-5425956D01*
D17*
X+11838000Y-10737116D02*
X+12800000Y-10737116D01*
X+12800000Y-8684796D01*
X+11838000Y-8684796D01*
X+11838000Y-10737116D01*
D24*
X+12145840Y-10172716D02*
X+12434440Y-10172716D01*
X+12492160Y-10114996D01*
X+12492160Y-9884116D01*
X+12434440Y-9826396D01*
X+12145840Y-9826396D01*
X+12203560Y-9653236D02*
X+12145840Y-9595516D01*
X+12145840Y-9422356D01*
X+12203560Y-9364636D01*
X+12261280Y-9364636D01*
X+12319000Y-9422356D01*
X+12376720Y-9364636D01*
X+12434440Y-9364636D01*
X+12492160Y-9422356D01*
X+12492160Y-9595516D01*
X+12434440Y-9653236D01*
X+12319000Y-9537796D02*
X+12319000Y-9422356D01*
D17*
X+11738000Y-7283116D02*
X+12700000Y-7283116D01*
X+12700000Y-5230796D01*
X+11738000Y-5230796D01*
X+11738000Y-7283116D01*
D24*
X+12045840Y-6718716D02*
X+12334440Y-6718716D01*
X+12392160Y-6660996D01*
X+12392160Y-6430116D01*
X+12334440Y-6372396D01*
X+12045840Y-6372396D01*
X+12276720Y-5910636D02*
X+12276720Y-6256956D01*
X+12045840Y-6026076D01*
X+12392160Y-6026076D01*
D17*
X+4034000Y-6947116D02*
X+4996000Y-6947116D01*
X+4996000Y-4894796D01*
X+4034000Y-4894796D01*
X+4034000Y-6947116D01*
D24*
X+4341840Y-6382716D02*
X+4630440Y-6382716D01*
X+4688160Y-6324996D01*
X+4688160Y-6094116D01*
X+4630440Y-6036396D01*
X+4341840Y-6036396D01*
X+4341840Y-5574636D02*
X+4341840Y-5863236D01*
X+4457280Y-5863236D01*
X+4457280Y-5632356D01*
X+4515000Y-5574636D01*
X+4630440Y-5574636D01*
X+4688160Y-5632356D01*
X+4688160Y-5805516D01*
X+4630440Y-5863236D01*
D17*
X+1417840Y-5852116D02*
X+2454160Y-5852116D01*
X+2454160Y-4815796D01*
X+1417840Y-4815796D01*
X+1417840Y-5852116D01*
D25*
X+1970544Y-5610308D02*
X+2005088Y-5610308D01*
X+2039632Y-5575764D01*
X+2039632Y-5437588D01*
X+2005088Y-5403044D01*
X+1832368Y-5403044D01*
X+1901456Y-5264868D02*
X+1832368Y-5195780D01*
X+2039632Y-5195780D01*
D17*
X+1517840Y-10952116D02*
X+2554160Y-10952116D01*
X+2554160Y-9915796D01*
X+1517840Y-9915796D01*
X+1517840Y-10952116D01*
D25*
X+2070544Y-10710308D02*
X+2105088Y-10710308D01*
X+2139632Y-10675764D01*
X+2139632Y-10537588D01*
X+2105088Y-10503044D01*
X+1932368Y-10503044D01*
X+1966912Y-10399412D02*
X+1932368Y-10364868D01*
X+1932368Y-10261236D01*
X+1966912Y-10226692D01*
X+2001456Y-10226692D01*
X+2036000Y-10261236D01*
X+2036000Y-10364868D01*
X+2070544Y-10399412D01*
X+2139632Y-10399412D01*
X+2139632Y-10226692D01*
D17*
X+3048840Y-10471116D02*
X+3323160Y-10471116D01*
X+3323160Y-9688796D01*
X+3048840Y-9688796D01*
X+3048840Y-10471116D01*
D26*
X+3202460Y-10211629D02*
X+3218919Y-10211629D01*
X+3235378Y-10195170D01*
X+3235378Y-10129334D01*
X+3218919Y-10112875D01*
X+3136623Y-10112875D01*
X+3153082Y-10063497D02*
X+3136623Y-10047038D01*
X+3136623Y-9997661D01*
X+3153082Y-9981202D01*
X+3169541Y-9981202D01*
X+3186000Y-9997661D01*
X+3202460Y-9981202D01*
X+3218919Y-9981202D01*
X+3235378Y-9997661D01*
X+3235378Y-10047038D01*
X+3218919Y-10063497D01*
X+3186000Y-10030579D02*
X+3186000Y-9997661D01*
D17*
X+13073100Y-8816856D02*
X+13250900Y-8816856D01*
X+13250900Y-7623056D01*
X+13073100Y-7623056D01*
X+13073100Y-8816856D01*
D23*
X+13194004Y-8305300D02*
X+13129996Y-8305300D01*
X+13129996Y-8251960D01*
X+13140664Y-8241292D01*
X+13151332Y-8241292D01*
X+13162000Y-8251960D01*
X+13162000Y-8305300D01*
X+13162000Y-8251960D02*
X+13172668Y-8241292D01*
X+13194004Y-8241292D01*
X+13151332Y-8198620D02*
X+13129996Y-8177284D01*
X+13194004Y-8177284D01*
D17*
X+1431100Y-11318856D02*
X+2624900Y-11318856D01*
X+2624900Y-11141056D01*
X+1431100Y-11141056D01*
X+1431100Y-11318856D01*
D23*
X+1942656Y-11261960D02*
X+1942656Y-11197952D01*
X+1995996Y-11197952D01*
X+2006664Y-11208620D01*
X+2006664Y-11219288D01*
X+1995996Y-11229956D01*
X+1942656Y-11229956D01*
X+1995996Y-11229956D02*
X+2006664Y-11240624D01*
X+2006664Y-11261960D01*
X+2038668Y-11208620D02*
X+2049336Y-11197952D01*
X+2081340Y-11197952D01*
X+2092008Y-11208620D01*
X+2092008Y-11219288D01*
X+2081340Y-11229956D01*
X+2049336Y-11229956D01*
X+2038668Y-11240624D01*
X+2038668Y-11261960D01*
X+2092008Y-11261960D01*
D17*
X+2697100Y-6734856D02*
X+2874900Y-6734856D01*
X+2874900Y-5541056D01*
X+2697100Y-5541056D01*
X+2697100Y-6734856D01*
D23*
X+2818004Y-6265972D02*
X+2753996Y-6265972D01*
X+2753996Y-6212632D01*
X+2764664Y-6201964D01*
X+2775332Y-6201964D01*
X+2786000Y-6212632D01*
X+2786000Y-6265972D01*
X+2786000Y-6212632D02*
X+2796668Y-6201964D01*
X+2818004Y-6201964D01*
X+2764664Y-6169960D02*
X+2753996Y-6159292D01*
X+2753996Y-6127288D01*
X+2764664Y-6116620D01*
X+2775332Y-6116620D01*
X+2786000Y-6127288D01*
X+2786000Y-6159292D01*
X+2796668Y-6169960D01*
X+2818004Y-6169960D01*
X+2818004Y-6116620D01*
X+2796668Y-6031276D02*
X+2796668Y-6095284D01*
X+2753996Y-6052612D01*
X+2818004Y-6052612D01*
D17*
X+1538000Y-8941116D02*
X+2500000Y-8941116D01*
X+2500000Y-7142796D01*
X+1538000Y-7142796D01*
X+1538000Y-8941116D01*
D24*
X+1845840Y-8503716D02*
X+2134440Y-8503716D01*
X+2192160Y-8445996D01*
X+2192160Y-8215116D01*
X+2134440Y-8157396D01*
X+1845840Y-8157396D01*
X+1961280Y-7926516D02*
X+1845840Y-7811076D01*
X+2192160Y-7811076D01*
D17*
X+4038000Y-10433116D02*
X+5000000Y-10433116D01*
X+5000000Y-8126796D01*
X+4038000Y-8126796D01*
X+4038000Y-10433116D01*
D24*
X+4345840Y-9741716D02*
X+4634440Y-9741716D01*
X+4692160Y-9683996D01*
X+4692160Y-9453116D01*
X+4634440Y-9395396D01*
X+4345840Y-9395396D01*
X+4403560Y-8933636D02*
X+4345840Y-8991356D01*
X+4345840Y-9164516D01*
X+4403560Y-9222236D01*
X+4634440Y-9222236D01*
X+4692160Y-9164516D01*
X+4692160Y-8991356D01*
X+4634440Y-8933636D01*
X+4576720Y-8933636D01*
X+4519000Y-8991356D01*
X+4519000Y-9222236D01*
D17*
X+11885840Y-8333116D02*
X+12477660Y-8333116D01*
X+12477660Y-7741296D01*
X+11885840Y-7741296D01*
X+11885840Y-8333116D01*
D27*
X+12240932Y-8195024D02*
X+12122568Y-8195024D01*
X+12122568Y-8116115D01*
X+12162023Y-8076661D01*
X+12201477Y-8076661D01*
X+12240932Y-8116115D01*
X+12240932Y-8195024D01*
X+12162023Y-7997752D02*
X+12122568Y-7958297D01*
X+12240932Y-7958297D01*
D17*
X+1439840Y-6860160D02*
X+2510160Y-6860160D01*
X+2510160Y-5989840D01*
X+1439840Y-5989840D01*
X+1439840Y-6860160D01*
D28*
X+1632498Y-6489220D02*
X+1632498Y-6360781D01*
X+1739529Y-6360781D01*
X+1760936Y-6382188D01*
X+1760936Y-6403594D01*
X+1739529Y-6425000D01*
X+1760936Y-6446407D01*
X+1760936Y-6467813D01*
X+1739529Y-6489220D01*
X+1632498Y-6489220D01*
X+1632498Y-6425000D02*
X+1739529Y-6425000D01*
X+1803749Y-6360781D02*
X+1932187Y-6360781D01*
X+1867968Y-6360781D02*
X+1867968Y-6489220D01*
X+1975000Y-6489220D02*
X+1975000Y-6360781D01*
X+2103438Y-6489220D01*
X+2103438Y-6360781D01*
X+2189063Y-6403594D02*
X+2231876Y-6360781D01*
X+2231876Y-6489220D01*
D17*
X+3989840Y-11560160D02*
X+5060160Y-11560160D01*
X+5060160Y-10689840D01*
X+3989840Y-10689840D01*
X+3989840Y-11560160D01*
D28*
X+4182498Y-11189220D02*
X+4182498Y-11060781D01*
X+4289529Y-11060781D01*
X+4310936Y-11082188D01*
X+4310936Y-11103594D01*
X+4289529Y-11125000D01*
X+4310936Y-11146407D01*
X+4310936Y-11167813D01*
X+4289529Y-11189220D01*
X+4182498Y-11189220D01*
X+4182498Y-11125000D02*
X+4289529Y-11125000D01*
X+4353749Y-11060781D02*
X+4482187Y-11060781D01*
X+4417968Y-11060781D02*
X+4417968Y-11189220D01*
X+4525000Y-11189220D02*
X+4525000Y-11060781D01*
X+4653438Y-11189220D01*
X+4653438Y-11060781D01*
X+4717657Y-11082188D02*
X+4739063Y-11060781D01*
X+4803282Y-11060781D01*
X+4824689Y-11082188D01*
X+4824689Y-11103594D01*
X+4803282Y-11125000D01*
X+4739063Y-11125000D01*
X+4717657Y-11146407D01*
X+4717657Y-11189220D01*
X+4824689Y-11189220D01*
D17*
X+2432727Y-11614066D02*
X+3626527Y-11614066D01*
X+3626527Y-11436266D01*
X+2432727Y-11436266D01*
X+2432727Y-11614066D01*
D23*
X+2901611Y-11557170D02*
X+2901611Y-11493162D01*
X+2954951Y-11493162D01*
X+2965619Y-11503830D01*
X+2965619Y-11514498D01*
X+2954951Y-11525166D01*
X+2901611Y-11525166D01*
X+2954951Y-11525166D02*
X+2965619Y-11535834D01*
X+2965619Y-11557170D01*
X+2997623Y-11503830D02*
X+3008291Y-11493162D01*
X+3040295Y-11493162D01*
X+3050963Y-11503830D01*
X+3050963Y-11514498D01*
X+3040295Y-11525166D01*
X+3008291Y-11525166D01*
X+2997623Y-11535834D01*
X+2997623Y-11557170D01*
X+3050963Y-11557170D01*
X+3136307Y-11493162D02*
X+3082967Y-11493162D01*
X+3082967Y-11514498D01*
X+3125639Y-11514498D01*
X+3136307Y-11525166D01*
X+3136307Y-11546502D01*
X+3125639Y-11557170D01*
X+3093635Y-11557170D01*
X+3082967Y-11546502D01*
M02*
