G04 PROTEUS GERBER X2 FILE*
%TF.GenerationSoftware,Labcenter,Proteus,8.8-SP0-Build26547*%
%TF.CreationDate,2024-06-03T23:11:47+00:00*%
%TF.FileFunction,Copper,L2,Bot*%
%TF.FilePolarity,Positive*%
%TF.Part,Single*%
%TF.SameCoordinates,{21ee4477-aff3-40fb-9ee6-804b83d108f7}*%
%FSLAX45Y45*%
%MOMM*%
G01*
%TA.AperFunction,Conductor*%
%ADD10C,1.016000*%
%TA.AperFunction,ViaPad*%
%ADD11C,2.032000*%
%AMDIL002*
4,1,8,
-1.270000,0.457200,-0.965200,0.762000,0.965200,0.762000,1.270000,0.457200,1.270000,-0.457200,
0.965200,-0.762000,-0.965200,-0.762000,-1.270000,-0.457200,-1.270000,0.457200,
0*%
%TA.AperFunction,ComponentPad*%
%ADD12DIL002*%
%TA.AperFunction,ComponentPad*%
%ADD13R,2.032000X2.032000*%
%ADD14C,3.048000*%
%TA.AperFunction,ComponentPad*%
%ADD15C,2.540000*%
%TA.AperFunction,Profile*%
%ADD16C,0.203200*%
%TD.AperFunction*%
D10*
X+3186000Y-10079956D02*
X+2429544Y-10079956D01*
X+2300000Y-10209500D01*
X+2300000Y-10844500D01*
X+2159000Y-10985500D01*
X+1765000Y-10985500D01*
X+1600000Y-10820500D01*
X+1600000Y-8841956D01*
X+1638000Y-8803956D01*
X+2036000Y-10687956D02*
X+1887956Y-10687956D01*
X+1778000Y-10578000D01*
X+1778000Y-9207500D01*
X+1841500Y-9144000D01*
X+1841500Y-8549956D01*
X+1638000Y-8549956D01*
X+4138000Y-9533956D02*
X+2095500Y-9533956D01*
X+1968500Y-9406956D01*
X+1968500Y-7429500D01*
X+1818956Y-7279956D01*
X+1638000Y-7279956D01*
X+9424000Y-10699955D02*
X+9424000Y-10699956D01*
X+9424000Y-10687956D01*
X+9884000Y-10687956D01*
X+9424000Y-10953955D02*
X+9424000Y-10953956D01*
X+9424000Y-10937956D01*
X+9884000Y-10937956D01*
X+7400000Y-10687956D02*
X+7620000Y-10687956D01*
X+7632000Y-10699956D01*
X+7900000Y-10699956D01*
X+7416000Y-10187956D02*
X+7620000Y-10187956D01*
X+7624000Y-10191956D01*
X+7900000Y-10191956D01*
X+7416000Y-9937956D02*
X+7416000Y-9937955D01*
X+7620000Y-9937955D01*
X+7620001Y-9937956D01*
X+7900000Y-9937956D01*
X+9424000Y-10191955D02*
X+9424000Y-10191956D01*
X+9424000Y-10187956D01*
X+9900000Y-10187956D01*
X+9884000Y-9937956D02*
X+9884000Y-9937955D01*
X+9652000Y-9937955D01*
X+9651999Y-9937956D01*
X+9424000Y-9937956D01*
X+11457054Y-10372256D02*
X+11911700Y-10372256D01*
X+11938000Y-10345956D01*
X+5220603Y-10298924D02*
X+5217635Y-10295956D01*
X+4900000Y-10295956D01*
X+11938000Y-8821956D02*
X+11747500Y-8821956D01*
X+11620500Y-8948956D01*
X+11620500Y-9017000D01*
X+11493500Y-9144000D01*
X+6032500Y-9144000D01*
X+5905500Y-9271000D01*
X+5905500Y-9906000D01*
X+5769544Y-10041956D01*
X+4900000Y-10041956D01*
X+4900000Y-9787956D02*
X+5651500Y-9787956D01*
X+5778500Y-9660956D01*
X+5778500Y-9144000D01*
X+5905500Y-9017000D01*
X+11366500Y-9017000D01*
X+11493500Y-8890000D01*
X+11493500Y-8763000D01*
X+11620500Y-8636000D01*
X+12128500Y-8636000D01*
X+12128500Y-9075956D01*
X+11938000Y-9075956D01*
X+5123522Y-9534459D02*
X+4900503Y-9534459D01*
X+4900000Y-9533956D01*
X+11717725Y-10091365D02*
X+11718316Y-10091956D01*
X+11938000Y-10091956D01*
X+12700000Y-9583956D02*
X+12382500Y-9583956D01*
X+12255500Y-9710956D01*
X+12255500Y-10668000D01*
X+12128500Y-10795000D01*
X+11283044Y-10795000D01*
X+11176000Y-10687956D01*
X+10900000Y-10687956D01*
X+10900000Y-10937956D02*
X+10900000Y-11050000D01*
X+11000000Y-11150000D01*
X+12027500Y-11150000D01*
X+12382500Y-10795000D01*
X+12382500Y-9964956D01*
X+12509500Y-9837956D01*
X+12700000Y-9837956D01*
X+6087166Y-9936376D02*
X+6108072Y-9957282D01*
X+6108072Y-10166334D01*
X+6378378Y-10166334D01*
X+6400000Y-10187956D01*
X+13033449Y-11265790D02*
X+13033449Y-10582545D01*
X+12796860Y-10345956D01*
X+12700000Y-10345956D01*
X+13000000Y-9200000D02*
X+12875956Y-9075956D01*
X+12700000Y-9075956D01*
X+13001587Y-9485154D02*
X+12846389Y-9329956D01*
X+12700000Y-9329956D01*
X+9424000Y-8387955D02*
X+9424000Y-8387956D01*
X+9424000Y-8375956D01*
X+9884000Y-8375956D01*
X+9424000Y-8641955D02*
X+9424000Y-8641956D01*
X+9424000Y-8625956D01*
X+9884000Y-8625956D01*
X+7350000Y-8325956D02*
X+7556500Y-8325956D01*
X+7618500Y-8387956D01*
X+7900000Y-8387956D01*
X+7416000Y-7875956D02*
X+7620000Y-7875956D01*
X+7624000Y-7879956D01*
X+7900000Y-7879956D01*
X+7416000Y-7625956D02*
X+7416000Y-7625955D01*
X+7620000Y-7625955D01*
X+7620001Y-7625956D01*
X+7900000Y-7625956D01*
X+9424000Y-7879955D02*
X+9424000Y-7879956D01*
X+9424000Y-7875956D01*
X+9900000Y-7875956D01*
X+9884000Y-7625956D02*
X+9884000Y-7625955D01*
X+9652000Y-7625955D01*
X+9651999Y-7625956D01*
X+9424000Y-7625956D01*
X+2963726Y-8320224D02*
X+2963130Y-8320224D01*
X+3160862Y-8517956D01*
X+3161458Y-8517956D01*
X+4138000Y-8517956D02*
X+3161458Y-8517956D01*
X+4138000Y-8517956D02*
X+4036400Y-8521571D01*
X+3165073Y-8521571D01*
X+3161458Y-8517956D01*
X+2963726Y-8320224D02*
X+3161458Y-8517956D01*
X+12873802Y-5613072D02*
X+12864918Y-5621956D01*
X+12600000Y-5621956D01*
X+11838000Y-6383956D02*
X+11493500Y-6383957D01*
X+11239500Y-6637957D01*
X+11239500Y-7175500D01*
X+11112500Y-7302500D01*
X+10795000Y-7302500D01*
X+10668000Y-7429500D01*
X+10668000Y-8143956D01*
X+10900000Y-8375956D01*
X+11838000Y-6129957D02*
X+11838000Y-6129956D01*
X+11650043Y-5875957D02*
X+11650043Y-5825156D01*
X+11838000Y-5825156D01*
X+11838000Y-5875956D01*
X+11838000Y-5875957D01*
X+7420956Y-7239000D02*
X+9398000Y-7239000D01*
X+9588500Y-7048500D01*
X+10858500Y-7048500D01*
X+11112500Y-6794500D01*
X+11112500Y-6413500D01*
X+11650043Y-5875957D01*
X+11837999Y-5875957D01*
X+11838000Y-5875956D01*
X+7420956Y-7239000D02*
X+6579978Y-8079978D01*
X+6554108Y-8105848D01*
X+6332029Y-8105848D01*
X+6334000Y-8107819D01*
X+6334000Y-8325956D01*
X+11838000Y-5621957D02*
X+11838000Y-5621956D01*
X+11430000Y-5621957D01*
X+11146457Y-5905500D01*
X+10795000Y-5905500D01*
X+10033000Y-6667500D01*
X+9525000Y-6667500D01*
X+9080500Y-7112000D01*
X+6286500Y-7112000D01*
X+6159500Y-7239000D01*
X+6159500Y-7875956D01*
X+6400000Y-7875956D01*
X+11574172Y-5367249D02*
X+11574879Y-5367956D01*
X+11838000Y-5367956D01*
X+11838000Y-6891957D02*
X+11838000Y-6891956D01*
X+11620500Y-6891957D01*
X+11620500Y-7747000D01*
X+11491544Y-7875956D01*
X+10916000Y-7875956D01*
X+11838000Y-6637957D02*
X+11838000Y-6637956D01*
X+11837999Y-6637956D01*
X+11620500Y-6637956D01*
X+11493500Y-6764956D01*
X+11493500Y-7493000D01*
X+11360544Y-7625956D01*
X+10900000Y-7625956D01*
X+9424000Y-6187955D02*
X+9424000Y-6187956D01*
X+9424000Y-6175956D01*
X+9884000Y-6175956D01*
X+9424000Y-6441955D02*
X+9424000Y-6441956D01*
X+9424000Y-6425956D01*
X+9884000Y-6425956D01*
X+7400000Y-6275956D02*
X+7595500Y-6275956D01*
X+7683500Y-6187956D01*
X+7900000Y-6187956D01*
X+7416000Y-5675956D02*
X+7620000Y-5675956D01*
X+7624000Y-5679956D01*
X+7900000Y-5679956D01*
X+7416000Y-5425956D02*
X+7416000Y-5425955D01*
X+7620000Y-5425955D01*
X+7620001Y-5425956D01*
X+7900000Y-5425956D01*
X+9424000Y-5679955D02*
X+9424000Y-5679956D01*
X+9424000Y-5675956D01*
X+9900000Y-5675956D01*
X+9884000Y-5425956D02*
X+9884000Y-5425955D01*
X+9652000Y-5425955D01*
X+9651999Y-5425956D01*
X+9424000Y-5425956D01*
X+5214438Y-5795155D02*
X+4897199Y-5795155D01*
X+4896000Y-5793956D01*
X+5208049Y-6060535D02*
X+4908579Y-6060535D01*
X+4896000Y-6047956D01*
X+4896000Y-6301956D02*
X+5270500Y-6301956D01*
X+5296500Y-6275956D01*
X+6384000Y-6275956D01*
X+6400000Y-5675956D02*
X+6575956Y-5675956D01*
X+6604000Y-5704000D01*
X+6604000Y-6413500D01*
X+6461544Y-6555956D01*
X+4896000Y-6555956D01*
X+6400000Y-5425956D02*
X+6925956Y-5425956D01*
X+7000000Y-5500000D01*
X+7000000Y-6700000D01*
X+5380456Y-6700000D01*
X+5270500Y-6809956D01*
X+4896000Y-6809956D01*
X+4896000Y-5285955D02*
X+4896000Y-5285956D01*
X+5080000Y-5285955D01*
X+5285955Y-5080000D01*
X+10985500Y-5080000D01*
X+11112500Y-5207000D01*
X+11112500Y-5675956D01*
X+10916000Y-5675956D01*
X+4896000Y-5539956D02*
X+4896000Y-5590756D01*
X+4762500Y-5590756D01*
X+4762500Y-5539955D01*
X+4896000Y-5539955D01*
X+4896000Y-5539956D02*
X+5461000Y-5539955D01*
X+5793955Y-5207000D01*
X+10407000Y-5207000D01*
X+10625956Y-5425956D01*
X+10900000Y-5425956D01*
X+4719578Y-8771956D02*
X+4719578Y-8721155D01*
X+4900000Y-8721155D01*
X+4900000Y-8771956D01*
X+4900000Y-8771955D01*
X+4719578Y-8771956D02*
X+4900000Y-8771956D01*
X+4318000Y-6555956D02*
X+4134000Y-6555956D01*
X+4318000Y-6555956D02*
X+4318000Y-7853476D01*
X+4318000Y-7874054D01*
X+4544365Y-8100419D01*
X+4544365Y-8650165D01*
X+4666155Y-8771955D01*
X+4666156Y-8771956D01*
X+4719578Y-8771956D01*
X+4850000Y-11350000D02*
X+4508500Y-11008500D01*
X+4508500Y-9969500D01*
X+4326956Y-9787956D01*
X+4138000Y-9787956D01*
X+4134000Y-5031956D02*
X+4445000Y-5031956D01*
X+4572000Y-5158956D01*
X+4572000Y-6921500D01*
X+5080000Y-7429500D01*
X+5080000Y-8517955D01*
X+4900000Y-8517956D01*
X+4900000Y-8517955D01*
X+4134000Y-5285956D02*
X+4318000Y-5285956D01*
X+4445000Y-5412956D01*
X+4445000Y-7595000D01*
X+4900000Y-8050000D01*
X+4900000Y-8263956D01*
X+3250000Y-8300000D02*
X+4137640Y-8263596D01*
X+4138000Y-8263956D01*
X+3900000Y-6300000D02*
X+3901956Y-6301956D01*
X+4134000Y-6301956D01*
X+2786000Y-6645956D02*
X+2786000Y-7937500D01*
X+2730500Y-7993000D01*
X+2730500Y-8890000D01*
X+2866456Y-9025956D01*
X+4138000Y-9025956D01*
X+2786000Y-6645956D02*
X+2304044Y-6645956D01*
X+2300000Y-6650000D01*
X+3186000Y-10333956D02*
X+2800000Y-10333956D01*
X+2800000Y-11200000D01*
X+2770044Y-11229956D01*
X+2536000Y-11229956D01*
X+13162000Y-7711956D02*
X+13162000Y-7888000D01*
X+13100000Y-7950000D01*
X+12366088Y-7950000D01*
X+12358044Y-7941956D01*
X+12150000Y-7941956D01*
X+2490185Y-9312010D02*
X+2159000Y-8980825D01*
X+2159000Y-7787954D01*
X+2300000Y-6200000D02*
X+2095500Y-6404500D01*
X+2095500Y-7239000D01*
X+2159000Y-7302500D01*
X+2159000Y-7787954D01*
X+4138000Y-9279956D02*
X+4508500Y-9279956D01*
X+4635500Y-9406956D01*
X+4635500Y-10350500D01*
X+5080000Y-10795000D01*
X+5080000Y-10900000D01*
X+5500000Y-10604500D02*
X+5500000Y-10900000D01*
X+5080000Y-10900000D01*
X+7900000Y-5933956D02*
X+7302500Y-5933956D01*
X+7175500Y-6060956D01*
X+7175500Y-6858000D01*
X+7048500Y-6985000D01*
X+6098752Y-6985000D01*
X+5847834Y-7235918D01*
X+2222500Y-7787954D02*
X+2159000Y-7787954D01*
X+3186000Y-9825956D02*
X+2390000Y-9825956D01*
X+2036000Y-10179956D01*
X+2300000Y-6200000D02*
X+2730500Y-6200000D01*
X+2742259Y-6211759D01*
X+3507161Y-6211759D01*
X+7900000Y-10445956D02*
X+8318500Y-10445956D01*
X+8369303Y-10395153D01*
X+9207500Y-10395153D01*
X+7900000Y-8133956D02*
X+8382000Y-8133956D01*
X+8382001Y-8133955D01*
X+9424000Y-8133956D01*
X+9424000Y-8133955D01*
X+9424000Y-5933956D02*
X+7937501Y-5933955D01*
X+7937500Y-5933956D01*
X+7900000Y-5933956D01*
X+2222500Y-7787954D02*
X+2399999Y-7787954D01*
X+2400000Y-7787956D01*
X+2400000Y-7787955D01*
X+6400000Y-10450000D02*
X+6100000Y-10450000D01*
X+5895239Y-10245239D01*
X+5500000Y-10245239D01*
X+5500000Y-10604500D01*
X+9424000Y-5933955D02*
X+9424000Y-5933956D01*
X+9424000Y-5884713D01*
X+9652000Y-5884713D01*
X+9652000Y-5935514D01*
X+11938000Y-9837956D02*
X+12128500Y-9837956D01*
X+12128500Y-10599956D01*
X+11938000Y-10599956D01*
X+9207500Y-10395153D02*
X+9424000Y-10395153D01*
X+9424000Y-10445956D01*
X+9424000Y-10445955D01*
X+3518920Y-6200000D02*
X+3507161Y-6211759D01*
X+9885495Y-5935514D02*
X+9652000Y-5935514D01*
X+9424000Y-10445956D02*
X+9398000Y-10445955D01*
X+9397999Y-10445954D01*
X+9207500Y-10445954D01*
X+9207500Y-10395153D01*
X+7900000Y-10445956D02*
X+7895956Y-10450000D01*
X+7400000Y-10450000D01*
X+4850000Y-10900000D02*
X+5080000Y-10900000D01*
X+7900000Y-8133956D02*
X+7900000Y-8133955D01*
X+7902350Y-8087275D01*
X+7855669Y-8133956D01*
X+7015812Y-8133956D02*
X+7855669Y-8133956D01*
X+6546456Y-8572500D02*
X+6577268Y-8572500D01*
X+7015812Y-8133956D01*
X+6546456Y-8572500D02*
X+6159500Y-8572500D01*
X+6032500Y-8445500D01*
X+6032500Y-7250000D02*
X+6032500Y-8445500D01*
X+5847834Y-7235918D02*
X+6018418Y-7235918D01*
X+6032500Y-7250000D01*
X+4134000Y-6809956D02*
X+4134000Y-7078174D01*
X+3969220Y-7242954D01*
X+4850000Y-10900000D02*
X+4800000Y-10900000D01*
X+11938000Y-9837956D02*
X+11462044Y-9837956D01*
X+11250000Y-10050000D01*
X+11250000Y-10447303D01*
X+11200000Y-10445955D01*
X+9424000Y-10445956D01*
X+9652000Y-5935514D02*
X+9425558Y-5935514D01*
X+9424000Y-5933956D01*
X+12600000Y-5367956D02*
X+12600000Y-5050000D01*
X+12600000Y-5367956D02*
X+12967956Y-5367956D01*
X+13150000Y-5550000D01*
X+13150000Y-6050000D01*
X+13070044Y-6129956D01*
X+12600000Y-6129956D01*
X+3937000Y-6047956D02*
X+4134000Y-6047956D01*
X+3937000Y-6047956D02*
X+3835043Y-6047956D01*
X+3750000Y-6132999D02*
X+3835043Y-6047956D01*
X+3750000Y-6132999D02*
X+3683000Y-6199999D01*
X+3682999Y-6200000D02*
X+3683000Y-6199999D01*
X+3682999Y-6200000D02*
X+3518920Y-6200000D01*
X+4134000Y-6809956D02*
X+3580976Y-6809956D01*
X+3507161Y-6736141D01*
X+3507161Y-6211759D01*
X+3186000Y-9825956D02*
X+3200121Y-9840077D01*
X+3485524Y-9840077D01*
X+2490185Y-9312010D02*
X+2522239Y-9279956D01*
X+2730500Y-9279956D01*
X+3186000Y-9279956D01*
X+4138000Y-9279956D02*
X+3186000Y-9279956D01*
X+2300000Y-6200000D02*
X+2300000Y-5150000D01*
X+2229956Y-5079956D01*
X+1936000Y-5079956D01*
X+11874500Y-8382000D02*
X+11493500Y-8382000D01*
X+11366500Y-8509000D01*
X+11366500Y-8699500D01*
X+11239500Y-8826500D01*
X+5500000Y-8826500D01*
X+12600000Y-6637956D02*
X+12600000Y-6383956D01*
X+11938000Y-9329956D02*
X+11938000Y-9583956D01*
X+11938000Y-9329956D02*
X+12319000Y-9329956D01*
X+12446000Y-9202956D01*
X+12446000Y-8636000D01*
X+11874500Y-8382000D02*
X+12192000Y-8382000D01*
X+12446000Y-8636000D01*
X+12700000Y-8636000D02*
X+12700000Y-8821956D01*
X+12446000Y-8636000D02*
X+12700000Y-8636000D01*
X+12827000Y-8509000D01*
X+13162000Y-8509000D01*
X+13162000Y-8727956D01*
X+1520000Y-11229956D02*
X+1520000Y-11049000D01*
X+1397000Y-10926000D01*
X+1397000Y-7787955D01*
X+2786000Y-5629956D02*
X+3847000Y-5629956D01*
X+3937000Y-5539956D01*
X+3900000Y-4852500D02*
X+3900000Y-5080000D01*
X+3937000Y-5117000D01*
X+3937000Y-5539956D01*
X+1397000Y-7787955D02*
X+1637999Y-7787955D01*
X+1638000Y-7787956D01*
X+4134000Y-5539956D02*
X+4134000Y-5793956D01*
X+1397000Y-7787954D02*
X+1397000Y-7747000D01*
X+5500000Y-8890000D02*
X+5500000Y-8826500D01*
X+1397000Y-7620000D02*
X+1397000Y-7747000D01*
X+5500000Y-8953500D02*
X+5500000Y-8890000D01*
X+5500000Y-9144000D02*
X+5500000Y-8953500D01*
X+5400000Y-9207500D02*
X+5461000Y-9207500D01*
X+1397000Y-7787955D02*
X+1397000Y-7787954D01*
X+5478385Y-9207500D02*
X+5500000Y-9185885D01*
X+5500000Y-9144000D01*
X+5500000Y-8000000D02*
X+5500000Y-8826500D01*
X+4134000Y-5539956D02*
X+3937000Y-5539956D01*
X+3900000Y-4852500D02*
X+3900000Y-4833712D01*
X+4000500Y-4826000D01*
X+4900000Y-4833712D01*
X+4896000Y-5031956D01*
X+2476500Y-4889500D02*
X+2476500Y-5159350D01*
X+2786000Y-5629956D02*
X+2786000Y-5286000D01*
X+2750000Y-5250000D01*
X+2567150Y-5250000D01*
X+2476500Y-5159350D01*
X+1600000Y-5587956D02*
X+1462044Y-5587956D01*
X+1397000Y-5653000D01*
X+1397000Y-7620000D01*
X+1600000Y-5587956D02*
X+1637956Y-5587956D01*
X+1600000Y-5550000D02*
X+1637956Y-5587956D01*
X+1936000Y-5587956D01*
X+1600000Y-5587956D02*
X+1600000Y-5550000D01*
X+1600000Y-5004000D01*
X+1778000Y-4826000D02*
X+1600000Y-5004000D01*
X+2413000Y-4826000D02*
X+1840593Y-4826000D01*
X+1778000Y-4826000D01*
X+2476500Y-4889500D02*
X+2413000Y-4826000D01*
X+5143500Y-9279956D02*
X+4900000Y-9279956D01*
X+5143500Y-9279956D02*
X+5215956Y-9207500D01*
X+5400000Y-9207500D01*
X+5478385Y-9207500D02*
X+5461000Y-9207500D01*
X+12600000Y-5875956D02*
X+12416456Y-5875956D01*
X+12255500Y-5715000D01*
X+12255500Y-4953000D01*
X+12001500Y-4699000D01*
X+1397000Y-4699000D01*
X+1100000Y-4996000D01*
X+1100000Y-11260000D01*
X+1640000Y-11800000D01*
X+2687309Y-11800000D01*
X+3300000Y-11100000D01*
X+3300000Y-10742456D01*
X+3746500Y-10295956D01*
X+4138000Y-10295956D01*
X+4850000Y-11350000D02*
X+5250000Y-11350000D01*
X+6400000Y-9937956D02*
X+6826456Y-9937956D01*
X+6985000Y-10096500D01*
X+6985000Y-11285000D01*
X+7050000Y-11350000D01*
X+12550000Y-11350000D01*
X+12700000Y-11200000D01*
X+12700000Y-10599956D01*
X+6384000Y-10687956D02*
X+6384000Y-11084000D01*
X+6850000Y-11550000D01*
X+13150000Y-11550000D01*
X+13350000Y-11350000D01*
X+13350000Y-10250000D01*
X+13191956Y-10091956D01*
X+12700000Y-10091956D01*
X+12600000Y-6891956D02*
X+13525500Y-6891956D01*
X+13800000Y-7166456D01*
X+13800000Y-11500000D01*
X+13457123Y-11842877D01*
X+4349877Y-11842877D01*
X+3937000Y-11430000D01*
X+3937000Y-10858500D01*
X+4318000Y-10477500D01*
X+4318000Y-10041956D01*
X+4138000Y-10041956D01*
X+1638000Y-7279956D02*
X+1638000Y-7016651D01*
X+1651536Y-7003115D01*
X+6060871Y-11650197D02*
X+6459999Y-11650197D01*
X+6525708Y-11715906D01*
X+13172253Y-11715906D01*
X+13500000Y-11388159D01*
X+13500000Y-9623548D01*
X+13300000Y-9423548D01*
X+13300000Y-9000000D01*
X+13400000Y-8803790D01*
X+13400000Y-8544473D01*
X+13051483Y-8195956D01*
X+12150000Y-8195956D01*
X+11838000Y-6129956D02*
X+12065000Y-6129957D01*
X+12192000Y-6256957D01*
X+12192000Y-7366000D01*
X+12065000Y-7493000D01*
X+12007000Y-7493000D01*
X+11747500Y-7752500D01*
X+11747500Y-8064500D01*
X+11620500Y-8191500D01*
X+11366500Y-8191500D01*
X+11239500Y-8318500D01*
X+11239500Y-8625956D01*
X+10900000Y-8625956D01*
X+11838000Y-7145956D02*
X+11838000Y-7376949D01*
X+11845892Y-7384841D01*
X+12756874Y-7378809D02*
X+12415446Y-7378809D01*
X+12400000Y-7363363D01*
X+12400000Y-6637956D01*
X+12600000Y-6637956D01*
X+11874500Y-8382000D02*
X+11950000Y-8306500D01*
X+11950000Y-7800000D01*
X+12130000Y-7620000D01*
X+12280000Y-7620000D01*
X+12400000Y-7500000D01*
X+12400000Y-7363363D01*
X+12600000Y-7145956D02*
X+13172398Y-7145956D01*
X+13411529Y-7385087D01*
X+5200387Y-8796905D02*
X+5200387Y-8912709D01*
X+5087074Y-9026022D01*
X+5075260Y-9026022D01*
X+4900066Y-9026022D01*
X+4900000Y-9025956D01*
D11*
X+11457054Y-10372256D03*
X+5220603Y-10298924D03*
X+5123522Y-9534459D03*
X+11717725Y-10091365D03*
X+6087166Y-9936376D03*
X+13033449Y-11265790D03*
X+13000000Y-9200000D03*
X+13001587Y-9485154D03*
X+2963726Y-8320224D03*
X+12873802Y-5613072D03*
X+11574172Y-5367249D03*
X+5214438Y-5795155D03*
X+5208049Y-6060535D03*
X+3250000Y-8300000D03*
X+3900000Y-6300000D03*
X+7400000Y-10450000D03*
X+6400000Y-10450000D03*
X+5847834Y-7235918D03*
X+3969220Y-7242954D03*
X+9885495Y-5935514D03*
X+12600000Y-5050000D03*
X+3485524Y-9840077D03*
X+2490185Y-9312010D03*
X+5500000Y-8000000D03*
X+5250000Y-11350000D03*
X+1651536Y-7003115D03*
X+6060871Y-11650197D03*
X+11845892Y-7384841D03*
X+12756874Y-7378809D03*
X+13411529Y-7385087D03*
X+5200387Y-8796905D03*
D12*
X+9424000Y-6187956D03*
X+9424000Y-6441956D03*
X+7900000Y-6187956D03*
X+9424000Y-5933956D03*
X+7900000Y-5933956D03*
X+7900000Y-5679956D03*
X+7900000Y-6441956D03*
X+7900000Y-5425956D03*
X+9424000Y-5425956D03*
X+9424000Y-5679956D03*
X+9424000Y-8387956D03*
X+9424000Y-8641956D03*
X+7900000Y-8387956D03*
X+9424000Y-8133956D03*
X+7900000Y-8133956D03*
X+7900000Y-7879956D03*
X+7900000Y-8641956D03*
X+7900000Y-7625956D03*
X+9424000Y-7625956D03*
X+9424000Y-7879956D03*
X+9424000Y-10699956D03*
X+9424000Y-10953956D03*
X+7900000Y-10699956D03*
X+9424000Y-10445956D03*
X+7900000Y-10445956D03*
X+7900000Y-10191956D03*
X+7900000Y-10953956D03*
X+7900000Y-9937956D03*
X+9424000Y-9937956D03*
X+9424000Y-10191956D03*
D13*
X+10900000Y-10687956D03*
X+9884000Y-10687956D03*
X+10900000Y-10937956D03*
X+9884000Y-10937956D03*
X+6384000Y-10687956D03*
X+7400000Y-10687956D03*
X+6400000Y-10187956D03*
X+7416000Y-10187956D03*
X+6400000Y-9937956D03*
X+7416000Y-9937956D03*
X+10916000Y-10187956D03*
X+9900000Y-10187956D03*
X+10900000Y-9937956D03*
X+9884000Y-9937956D03*
X+10900000Y-8375956D03*
X+9884000Y-8375956D03*
X+10900000Y-8625956D03*
X+9884000Y-8625956D03*
X+6334000Y-8325956D03*
X+7350000Y-8325956D03*
X+6400000Y-7875956D03*
X+7416000Y-7875956D03*
X+6400000Y-7625956D03*
X+7416000Y-7625956D03*
X+10916000Y-7875956D03*
X+9900000Y-7875956D03*
X+10900000Y-7625956D03*
X+9884000Y-7625956D03*
X+10900000Y-6175956D03*
X+9884000Y-6175956D03*
X+10900000Y-6425956D03*
X+9884000Y-6425956D03*
X+6384000Y-6275956D03*
X+7400000Y-6275956D03*
X+6400000Y-5675956D03*
X+7416000Y-5675956D03*
X+6400000Y-5425956D03*
X+7416000Y-5425956D03*
X+10916000Y-5675956D03*
X+9900000Y-5675956D03*
X+10900000Y-5425956D03*
X+9884000Y-5425956D03*
X+11938000Y-8821956D03*
X+11938000Y-9075956D03*
X+11938000Y-9329956D03*
X+11938000Y-9583956D03*
X+11938000Y-9837956D03*
X+11938000Y-10091956D03*
X+11938000Y-10345956D03*
X+11938000Y-10599956D03*
X+12700000Y-10599956D03*
X+12700000Y-10345956D03*
X+12700000Y-10091956D03*
X+12700000Y-9837956D03*
X+12700000Y-9583956D03*
X+12700000Y-9329956D03*
X+12700000Y-9075956D03*
X+12700000Y-8821956D03*
X+12600000Y-7145956D03*
X+12600000Y-6891956D03*
X+12600000Y-6637956D03*
X+12600000Y-6383956D03*
X+12600000Y-6129956D03*
X+12600000Y-5875956D03*
X+12600000Y-5621956D03*
X+12600000Y-5367956D03*
X+11838000Y-5367956D03*
X+11838000Y-5621956D03*
X+11838000Y-5875956D03*
X+11838000Y-6129956D03*
X+11838000Y-6383956D03*
X+11838000Y-6637956D03*
X+11838000Y-6891956D03*
X+11838000Y-7145956D03*
X+4134000Y-5031956D03*
X+4134000Y-5285956D03*
X+4134000Y-5539956D03*
X+4134000Y-5793956D03*
X+4134000Y-6047956D03*
X+4134000Y-6301956D03*
X+4134000Y-6555956D03*
X+4134000Y-6809956D03*
X+4896000Y-6809956D03*
X+4896000Y-6555956D03*
X+4896000Y-6301956D03*
X+4896000Y-6047956D03*
X+4896000Y-5793956D03*
X+4896000Y-5539956D03*
X+4896000Y-5285956D03*
X+4896000Y-5031956D03*
D14*
X+1936000Y-5079956D03*
X+1936000Y-5587956D03*
X+2036000Y-10179956D03*
X+2036000Y-10687956D03*
D13*
X+3186000Y-10333956D03*
X+3186000Y-10079956D03*
X+3186000Y-9825956D03*
X+13162000Y-8727956D03*
X+13162000Y-7711956D03*
X+2536000Y-11229956D03*
X+1520000Y-11229956D03*
X+2786000Y-5629956D03*
X+2786000Y-6645956D03*
X+1638000Y-7279956D03*
X+1638000Y-7533956D03*
X+1638000Y-7787956D03*
X+1638000Y-8041956D03*
X+1638000Y-8295956D03*
X+1638000Y-8549956D03*
X+1638000Y-8803956D03*
X+2400000Y-8803956D03*
X+2400000Y-8549956D03*
X+2400000Y-8295956D03*
X+2400000Y-8041956D03*
X+2400000Y-7787956D03*
X+2400000Y-7533956D03*
X+2400000Y-7279956D03*
X+4138000Y-8263956D03*
X+4138000Y-8517956D03*
X+4138000Y-8771956D03*
X+4138000Y-9025956D03*
X+4138000Y-9279956D03*
X+4138000Y-9533956D03*
X+4138000Y-9787956D03*
X+4138000Y-10041956D03*
X+4138000Y-10295956D03*
X+4900000Y-10295956D03*
X+4900000Y-10041956D03*
X+4900000Y-9787956D03*
X+4900000Y-9533956D03*
X+4900000Y-9279956D03*
X+4900000Y-9025956D03*
X+4900000Y-8771956D03*
X+4900000Y-8517956D03*
X+4900000Y-8263956D03*
X+12150000Y-7941956D03*
X+12150000Y-8195956D03*
D15*
X+2300000Y-6650000D03*
X+1650000Y-6650000D03*
X+2300000Y-6200000D03*
X+1650000Y-6200000D03*
X+4850000Y-11350000D03*
X+4200000Y-11350000D03*
X+4850000Y-10900000D03*
X+4200000Y-10900000D03*
D13*
X+2521627Y-11525166D03*
X+3537627Y-11525166D03*
D16*
X+950000Y-11941956D02*
X+14050000Y-11941956D01*
X+14050000Y-4541956D01*
X+950000Y-4541956D01*
X+950000Y-11941956D01*
M02*
